# Blender 3.4.1
# www.blender.org
mtllib cube00.mtl
o 00
v -0.099000 -0.099000 -0.020000
v -0.099000 -0.099000 0.020000
v -0.099000 0.099000 -0.020000
v -0.099000 0.099000 0.020000
v 0.099000 -0.099000 -0.020000
v 0.099000 -0.099000 0.020000
v 0.099000 0.099000 -0.020000
v 0.099000 0.099000 0.020000
vn -1.0000 -0.0000 -0.0000
vn -0.0000 1.0000 -0.0000
vn 1.0000 -0.0000 -0.0000
vn -0.0000 -1.0000 -0.0000
vn -0.0000 -0.0000 -1.0000
vn -0.0000 -0.0000 1.0000
vt 0.375000 0.000000
vt 0.375000 1.000000
vt 0.125000 0.750000
vt 0.625000 0.000000
vt 0.625000 1.000000
vt 0.502843 0.270421
vt 0.375000 0.250000
vt 0.125000 0.500000
vt 0.625000 0.250000
vt 0.502843 0.754969
vt 0.375000 0.750000
vt 0.625000 0.750000
vt 0.987391 0.270421
vt 0.375000 0.500000
vt 0.625000 0.500000
vt 0.987391 0.754969
s 0
usemtl hold_base_pusta.001
f 1/1/1 2/4/1 4/9/1 3/7/1
f 3/7/2 4/9/2 8/15/2 7/14/2
f 7/14/3 8/15/3 6/12/3 5/11/3
f 5/11/4 6/12/4 2/5/4 1/2/4
f 3/8/5 7/14/5 5/11/5 1/3/5
f 8/16/6 4/10/6 2/6/6 6/13/6
o frame.297
v -0.120000 -0.120000 0.020000
v 0.120000 -0.120000 0.020000
v 0.120000 -0.120000 -0.020000
v -0.120000 -0.120000 -0.020000
v 0.120000 -0.120000 0.020000
v 0.120000 -0.120000 -0.020000
v -0.102000 -0.102000 -0.020000
v -0.102000 0.102000 -0.020000
v 0.102000 -0.102000 -0.020000
v -0.120000 -0.120000 -0.020000
v -0.102000 -0.102000 0.020000
v -0.102000 0.102000 0.020000
v 0.102000 -0.102000 0.020000
v -0.120000 -0.120000 0.020000
v -0.120000 0.120000 0.020000
v 0.120000 -0.120000 0.020000
v 0.120000 0.120000 0.020000
v 0.120000 -0.120000 -0.020000
v 0.120000 0.120000 -0.020000
v -0.120000 0.120000 -0.020000
v 0.102000 0.102000 -0.020000
v 0.102000 0.102000 0.020000
v 0.120000 -0.120000 -0.020000
v 0.120000 -0.120000 0.020000
v 0.120000 0.120000 0.020000
v 0.120000 0.120000 -0.020000
v -0.120000 0.120000 -0.020000
v -0.120000 0.120000 0.020000
v 0.120000 0.120000 0.020000
v 0.120000 0.120000 -0.020000
v 0.120000 0.120000 -0.020000
v 0.120000 0.120000 0.020000
vn -0.0000 1.0000 -0.0000
vn 1.0000 -0.0000 -0.0000
vn -0.0000 -0.0000 -1.0000
vn -0.0000 -0.0000 1.0000
vn -1.0000 -0.0000 -0.0000
vn -0.0000 -1.0000 -0.0000
vt 0.625000 0.250000
vt 0.625000 0.500000
vt 0.375000 0.500000
vt 0.375000 0.250000
vt 0.143750 0.731250
vt 0.143750 0.518750
vt 0.356250 0.731250
vt 0.125000 0.750000
vt 0.375000 0.000000
vt 0.375000 1.000000
vt 0.856250 0.731250
vt 0.856250 0.518750
vt 0.643750 0.731250
vt 0.875000 0.750000
vt 0.625000 0.000000
vt 0.625000 1.000000
vt 0.625000 0.250000
vt 0.875000 0.500000
vt 0.625000 0.750000
vt 0.625000 0.500000
vt 0.375000 0.750000
vt 0.375000 0.500000
vt 0.375000 0.250000
vt 0.125000 0.500000
vt 0.356250 0.518750
vt 0.643750 0.518750
vt 0.375000 0.000000
vt 0.625000 0.000000
vt 0.625000 0.250000
vt 0.375000 0.250000
vt 0.375000 1.000000
vt 0.625000 1.000000
vt 0.625000 0.750000
vt 0.375000 0.750000
s 0
usemtl Gray_02
f 12/20/7 9/17/7 10/18/7 11/19/7
f 16/22/8 20/28/8 19/27/8 15/21/8
f 16/22/9 15/21/9 18/24/9 28/40/9
f 15/21/9 17/23/9 26/37/9 18/24/9
f 15/21/7 19/27/7 21/29/7 17/23/7
f 19/27/10 20/28/10 23/34/10 22/30/10
f 21/29/10 19/27/10 22/30/10 24/35/10
f 18/25/11 22/31/11 23/33/11 28/39/11
f 26/37/12 24/35/12 22/32/12 18/26/12
f 27/38/8 25/36/8 24/35/8 26/37/8
f 30/42/10 21/29/10 24/35/10 25/36/10
f 17/23/9 29/41/9 27/38/9 26/37/9
f 28/39/7 23/33/7 25/36/7 27/38/7
f 29/41/9 16/22/9 28/40/9 27/38/9
f 29/41/12 30/42/12 20/28/12 16/22/12
f 17/23/11 21/29/11 30/42/11 29/41/11
f 20/28/10 30/42/10 25/36/10 23/34/10
f 31/43/11 32/44/11 33/45/11 34/46/11
f 38/50/12 37/49/12 36/48/12 35/47/12
l 13 14
l 39 40
